<?xml version="1.0" encoding="UTF-8" standalone="no"?>
<svg
   viewBox="0 0 512 512"
   version="1.1"
   id="svg4"
   sodipodi:docname="groups.svg"
   inkscape:version="1.1.2 (0a00cf5339, 2022-02-04)"
   xmlns:inkscape="http://www.inkscape.org/namespaces/inkscape"
   xmlns:sodipodi="http://sodipodi.sourceforge.net/DTD/sodipodi-0.dtd"
   xmlns="http://www.w3.org/2000/svg"
   xmlns:svg="http://www.w3.org/2000/svg">
  <defs
     id="defs8" />
  <sodipodi:namedview
     id="namedview6"
     pagecolor="#ffffff"
     bordercolor="#666666"
     borderopacity="1.0"
     inkscape:pageshadow="2"
     inkscape:pageopacity="0.0"
     inkscape:pagecheckerboard="0"
     showgrid="false"
     inkscape:zoom="0.42578125"
     inkscape:cx="137.3945"
     inkscape:cy="267.74312"
     inkscape:window-width="1920"
     inkscape:window-height="1048"
     inkscape:window-x="0"
     inkscape:window-y="0"
     inkscape:window-maximized="1"
     inkscape:current-layer="svg4" />
  <!--! Font Awesome Free 6.5.2 by @fontawesome - https://fontawesome.com License - https://fontawesome.com/license/free (Icons: CC BY 4.0, Fonts: SIL OFL 1.1, Code: MIT License) Copyright 2024 Fonticons, Inc. -->
  <path
     d="m 263.264,38.685421 c -8.48553,-8.485532 -22.26604,-8.485532 -30.75157,0 -8.48553,8.485531 -8.48553,22.266034 0,30.751565 l 17.2426,17.174714 -20.30545,-0.927825 c -26.76615,-0.144876 -39.45095,6.058233 -39.65575,21.017145 -0.20791,15.18493 13.103,21.1859 39.65575,22.42878 l 20.30545,0.92783 -17.2426,17.24259 c -8.48553,8.48554 -8.48553,22.26604 0,30.75157 8.48553,8.48553 22.26604,8.48553 30.75157,0 l 54.3074,-54.3074 c 8.48553,-8.48554 8.48553,-22.26604 0,-30.75157 z"
     id="path2"
     sodipodi:nodetypes="sscccaccssssss"
     style="stroke-width:0.678842" />
  <path
     d="m 202.16492,472.58481 c -8.3998,8.39979 -22.04107,8.3998 -30.44087,0 -8.3998,-8.39979 -8.3998,-22.04107 0,-30.44087 l 17.06839,-17.00119 -71.09041,0.21629 C 82.087047,425.46739 53.191577,396.46373 53.191577,360.84859 V 339.3451 c 0,-11.89411 -5.353814,-62.0535 23.879522,-61.30602 29.233331,0.74748 19.127445,49.41191 19.127445,61.30602 v 21.50349 c 0,11.89411 9.609426,21.53966 21.503486,21.50348 l 71.09041,-0.21629 -17.06839,-17.06839 c -8.3998,-8.3998 -8.3998,-22.04107 0,-30.44087 8.3998,-8.3998 22.04107,-8.3998 30.44087,0 l 53.75871,53.75871 c 8.3998,8.3998 8.3998,22.04107 0,30.44087 z"
     id="path2-6"
     sodipodi:nodetypes="ssccssszssscssssss"
     style="stroke-width:0.671984" />
  <path
     d="M 21.592862,0.93888921 C 9.8146819,0.93888921 0.25879192,10.494773 0.25879192,22.272955 V 207.16823 c 0,11.77819 9.55588998,21.33407 21.33407008,21.33407 87.545368,0.52222 46.952312,0 128.004418,0 11.77818,0 21.33407,-9.55588 21.33407,-21.33407 V 22.272955 c 0,-11.778182 -9.55589,-21.33406579 -21.33407,-21.33406579 z M 28.704222,107.60924 c 0,-3.91125 3.20011,-7.11136 7.11135,-7.11136 l 106.772328,0 c 3.91124,0 7.11135,3.20011 7.11135,7.11136 v 14.22271 c 0,3.91125 -3.20011,7.11136 -7.11135,7.11136 l -106.772328,0 c -3.91124,0 -7.11135,-3.20011 -7.11135,-7.11136 z m 7.11135,-64.002215 109.002728,0 c 3.91124,0 7.11135,3.20011 7.11135,7.111362 v 14.22271 c 0,3.91125 -3.20011,7.11136 -7.11135,7.11136 l -109.002728,0 c -3.91124,0 -7.11135,-3.20011 -7.11135,-7.11136 v -14.22271 c 0,-3.911252 3.20011,-7.111362 7.11135,-7.111362 z"
     id="path2-3"
     sodipodi:nodetypes="sssccssssssssssssssssssssss"
     style="stroke-width:0.44446" />
  <path
     d="m 312.69415,284.83805 c -11.77818,0 -21.33407,9.55588 -21.33407,21.33407 v 184.89527 c 0,11.77819 9.55589,21.33407 21.33407,21.33407 87.54537,0.52222 46.95231,0 128.00442,0 11.77818,0 21.33407,-9.55588 21.33407,-21.33407 V 306.17212 c 0,-11.77819 -9.55589,-21.33407 -21.33407,-21.33407 z m 7.11136,106.67035 c 0,-3.91125 3.20011,-7.11136 7.11135,-7.11136 h 106.77233 c 3.91124,0 7.11135,3.20011 7.11135,7.11136 v 14.22271 c 0,3.91125 -3.20011,7.11136 -7.11135,7.11136 H 326.91686 c -3.91124,0 -7.11135,-3.20011 -7.11135,-7.11136 z m 7.11135,-64.00222 h 109.00273 c 3.91124,0 7.11135,3.20011 7.11135,7.11137 v 14.22271 c 0,3.91125 -3.20011,7.11136 -7.11135,7.11136 H 326.91686 c -3.91124,0 -7.11135,-3.20011 -7.11135,-7.11136 v -14.22271 c 0,-3.91126 3.20011,-7.11137 7.11135,-7.11137 z"
     id="path2-3-7"
     sodipodi:nodetypes="sssccssssssssssssssssssssss"
     style="stroke-width:0.44446" />
  <path
     d="m 363.02072,1.6833836 c -11.77818,0 -21.33407,9.5558804 -21.33407,21.3340604 V 207.91272 c 0,11.77819 9.55589,21.33407 21.33407,21.33407 87.54537,0.52222 46.95231,0 128.00442,0 11.77818,0 21.33407,-9.55588 21.33407,-21.33407 V 23.017444 c 0,-11.77818 -9.55589,-21.3340604 -21.33407,-21.3340604 z m 7.11136,106.6703464 c 0,-3.91125 3.20011,-7.11136 7.11135,-7.11136 h 106.77233 c 3.91124,0 7.11135,3.20011 7.11135,7.11136 v 14.22271 c 0,3.91125 -3.20011,7.11136 -7.11135,7.11136 H 377.24343 c -3.91124,0 -7.11135,-3.20011 -7.11135,-7.11136 z m 7.11135,-64.002216 h 109.00273 c 3.91124,0 7.11135,3.20011 7.11135,7.11137 v 14.22271 c 0,3.91125 -3.20011,7.11136 -7.11135,7.11136 H 377.24343 c -3.91124,0 -7.11135,-3.20011 -7.11135,-7.11136 v -14.22271 c 0,-3.91126 3.20011,-7.11137 7.11135,-7.11137 z"
     id="path2-3-5"
     sodipodi:nodetypes="sssccssssssssssssssssssssss"
     style="stroke-width:0.44446" />
</svg>
